<svg height="512" viewBox="0 0 64 64" width="512" xmlns="http://www.w3.org/2000/svg"><g id="Filled_outline" data-name="Filled outline"><path d="m17 35h22v26h-22z" fill="#195c85"/><g fill="#f9bb4b"><path d="m32 61h-15v-20h12l3 3z"/><path d="m19 24a4 4 0 0 1 0-8z"/><path d="m37 16a4 4 0 0 1 0 8z"/></g><path d="m19 13h18v18h-18z" fill="#ffd782"/><path d="m37 13s4.5-3.5-2-10c0 0 0 4-9 4-6 0-7 2-7 6z" fill="#394d5c"/><path d="m17 49v-14h-3a2.916 2.916 0 0 0 -3 3v15a2 2 0 0 0 2 2h16v-6z" fill="#2d75bb"/><path d="m29 49h3a3 3 0 0 1 3 3 3 3 0 0 1 -3 3h-3a0 0 0 0 1 0 0v-6a0 0 0 0 1 0 0z" fill="#ffd782"/><path d="m53 30v-9a2 2 0 0 0 -2-2 2 2 0 0 0 -2 2v2h-2a2.006 2.006 0 0 0 -2 2v3a2.006 2.006 0 0 0 2 2z" fill="#ffd782"/><path d="m53 30h-6v5h-8v6h10a4 4 0 0 0 4-4z" fill="#2d75bb"/><path d="m31 43-2-2h-4l1-6h4z" fill="#e33e5c"/><path d="m22 17h2v2h-2z"/><path d="m32 17h2v2h-2z"/><path d="m27 20h2v4h-2z"/><path d="m39.506 9.929c.149-2.4-1.129-4.966-3.8-7.636a1 1 0 0 0 -1.06-.211 1.026 1.026 0 0 0 -.646.888c0 .03-.288 3.03-8 3.03-6.691 0-8 2.566-8 7v2.1a5 5 0 0 0 0 9.8v6.1a1 1 0 0 0 1 1h18a1 1 0 0 0 1-1v-6.1a5 5 0 0 0 0-9.8v-1.68a5.578 5.578 0 0 0 1.506-3.491zm-21.506 12.9a3 3 0 0 1 0-5.658zm18 7.171h-16v-16h16zm.6-18h-1.6a4.806 4.806 0 0 0 1-3h-2a3.365 3.365 0 0 1 -2.186 3h-11.792c.144-2.771 1.1-4 5.978-4 5.948 0 8.358-1.736 9.335-3.163 1.5 1.782 2.252 3.467 2.177 4.927a3.6 3.6 0 0 1 -.912 2.236zm3.4 8a3.006 3.006 0 0 1 -2 2.829v-5.658a3.006 3.006 0 0 1 2 2.829z"/><path d="m10 38v15a3 3 0 0 0 3 3h3v5a1 1 0 0 0 1 1h22a1 1 0 0 0 1-1v-19h9a5.006 5.006 0 0 0 5-5v-16a3 3 0 0 0 -6 0v1h-1a3 3 0 0 0 -3 3v3a3 3 0 0 0 2 2.816v3.184h-32a3.913 3.913 0 0 0 -4 4zm36-13a1 1 0 0 1 1-1h2a1 1 0 0 0 1-1v-2a1 1 0 0 1 2 0v8h-5a1 1 0 0 1 -1-1zm-6 11h7a1 1 0 0 0 1-1v-4h4v6a3 3 0 0 1 -3 3h-9zm-9 24h-13v-4h13zm-1-6v-4h2a2 2 0 0 1 0 4zm8-18v24h-5v-4.142a3.981 3.981 0 0 0 0-7.716v-4.142a1 1 0 0 0 -.293-.707l-.757-.757-.817-6.536zm-11.153 0h2.27l.532 4.254a1 1 0 0 0 -.649-.254h-2.82zm-8.847 0h6.82l-.667 4h-6.153zm0 6h10.586l2.414 2.414v3.586h-13zm-1 8h11v4h-15a1 1 0 0 1 -1-1v-15a1.913 1.913 0 0 1 2-2h2v13a1 1 0 0 0 1 1z"/><path d="m20 44h9v2h-9z"/><path d="m28 28a6.006 6.006 0 0 0 6-6h-2a4 4 0 0 1 -8 0h-2a6.006 6.006 0 0 0 6 6z"/></g></svg>